<svg xmlns="http://www.w3.org/2000/svg" width="19.972" height="14.043" viewBox="0 0 19.972 14.043"><path d="M20.6,6.7A2.51,2.51,0,0,0,18.839,4.92c-1.558-.42-7.8-.42-7.8-.42s-6.245,0-7.8.42A2.51,2.51,0,0,0,1.467,6.7a26.326,26.326,0,0,0-.417,4.838,26.326,26.326,0,0,0,.417,4.838,2.472,2.472,0,0,0,1.766,1.749c1.558.42,7.8.42,7.8.42s6.245,0,7.8-.42A2.472,2.472,0,0,0,20.6,16.374a26.326,26.326,0,0,0,.417-4.838A26.326,26.326,0,0,0,20.6,6.7ZM8.993,14.505V8.566l5.22,2.97-5.22,2.97Z" transform="translate(-1.05 -4.5)" fill="#fff"/></svg>