<svg xmlns="http://www.w3.org/2000/svg" width="350.006" height="346.151" viewBox="0 0 350.006 346.151"><g transform="translate(0.512 0.5)"><path d="M342.007,75.463c-25.169,52.986-66.594,86.825-122.953,102.6-2.77.723-5.419,1.927-8.671,3.011,1.445,2.288,2.168,3.613,3.131,4.937,16.859,22.519,33.719,44.918,50.578,67.437,9.634,12.885,19.629,25.409,28.781,38.536,8.43,12.163,6.382,24.326-5.419,33.357a166.987,166.987,0,0,1-18.184,11.681c-6.744,3.854-13.487,3.131-18.786-2.529A79.557,79.557,0,0,1,238.8,319.321c-14.21-24.928-27.938-50.1-42.148-75.024-6.864-12.163-14.451-23.964-22.4-37.211-7.948,13.247-15.414,25.048-22.4,37.211-14.21,24.928-27.818,50.1-42.148,75.024a74.957,74.957,0,0,1-11.681,15.173c-5.3,5.54-12.042,6.382-18.786,2.529a166.989,166.989,0,0,1-18.184-11.681c-11.681-9.032-13.849-21.315-5.419-33.357,9.152-13.126,19.147-25.771,28.781-38.536C101.28,230.93,118.14,208.531,135,186.012c.963-1.2,1.686-2.649,3.131-4.937-3.251-1.084-5.9-2.168-8.671-3.011C73.342,162.288,32.037,128.449,6.868,75.463,3.5,68.478-.357,61.494,0,52.944c.6-12.885,7.225-22.278,18.907-24.807,14.21-3.011,26.373,2.529,31.19,15.053C69.127,92.8,106.218,120.26,157.277,130.737a70.357,70.357,0,0,0,17.221,1.445,70.358,70.358,0,0,0,17.221-1.445C242.778,120.26,279.748,92.8,298.9,43.189c4.817-12.524,16.98-18.064,31.19-15.053,11.681,2.529,18.3,11.922,18.907,24.807C349.112,61.494,345.259,68.478,342.007,75.463Z" transform="translate(0 5.582)" fill="none" stroke="rgba(224,195,211,0.35)" stroke-width="1"/><path d="M178.781,32.876c-1.2,13.367-1.566,26.734-2.529,40.1q-.9,11.019-2.529,22.038c-.843,5.539-4.094,9.513-9.152,11.922a42.451,42.451,0,0,1-14.812,3.974,42.451,42.451,0,0,1-14.812-3.974c-5.058-2.408-8.309-6.382-9.152-11.922Q124.168,84,123.265,72.977c-.963-13.367-1.325-26.854-2.529-40.1C118.93,12.644,128.564.843,148.8,0h1.927C170.953.843,180.587,12.644,178.781,32.876Z" transform="translate(24.619)" fill="none" stroke="rgba(224,195,211,0.35)" stroke-width="1"/></g></svg>